<?xml version="1.0" encoding="utf-8"?><!-- Uploaded to: SVG Repo, www.svgrepo.com, Generator: SVG Repo Mixer Tools -->
<svg fill="#000000" width="800px" height="800px" viewBox="0 0 24 24" id="basketball" data-name="Flat Color" xmlns="http://www.w3.org/2000/svg" class="icon flat-color"><circle id="primary" cx="12" cy="12" r="10" style="fill: rgb(0, 0, 0);"></circle><path id="secondary" d="M22,12c0-.34,0-.67-.05-1h-4.9a8.67,8.67,0,0,1,2.51-5.54,10.45,10.45,0,0,0-1.45-1.37A10.8,10.8,0,0,0,15,11H13V2.05c-.33,0-.66,0-1,0s-.67,0-1,0v9H9A10.8,10.8,0,0,0,5.89,4.09,10.45,10.45,0,0,0,4.44,5.46,8.67,8.67,0,0,1,7,11H2.05c0,.33,0,.66,0,1s0,.67,0,1H7a8.67,8.67,0,0,1-2.51,5.54,10.45,10.45,0,0,0,1.45,1.37A10.8,10.8,0,0,0,9,13h2v9c.33,0,.66.05,1,.05s.67,0,1-.05V13h2a10.8,10.8,0,0,0,3.07,6.91,10.45,10.45,0,0,0,1.45-1.37A8.67,8.67,0,0,1,17.05,13H22C22,12.67,22,12.34,22,12Z" style="fill: rgb(44, 169, 188);"></path></svg>